<?xml version="1.0" encoding="UTF-8"?>
<svg width="80px" height="28px" viewBox="0 0 80 28" version="1.1" xmlns="http://www.w3.org/2000/svg" xmlns:xlink="http://www.w3.org/1999/xlink">
    <!-- Generator: Sketch 53.2 (72643) - https://sketchapp.com -->
    <title>logo svg</title>
    <desc>Created with Sketch.</desc>
    <g id="logo-svg" stroke="none" stroke-width="1" fill="none" fill-rule="evenodd">
        <path d="M29.1768116,27.5130435 L21.2637681,27.5130435 L19.9246377,23.6173913 L9.25217391,23.6173913 L7.91304348,27.5130435 L0,27.5130435 L10.1855072,0.446376812 L18.9913043,0.446376812 L29.1768116,27.5130435 Z M18.0173913,17.5304348 L14.6086957,7.34492754 L11.1594203,17.5304348 L18.0173913,17.5304348 Z M44.4347826,28 C36.115942,28 29.7855072,22.3188406 29.7855072,14 C29.7855072,5.64057971 36.115942,0 44.4347826,0 C50.9681159,0 54.4985507,3.69275362 56.2434783,7.22318841 L50.2376812,10.1043478 C49.3449275,7.95362319 47.0318841,6.16811594 44.4347826,6.16811594 C40.0115942,6.16811594 36.8869565,9.53623188 36.8869565,14 C36.8869565,18.4231884 40.0115942,21.8318841 44.4347826,21.8318841 C47.0318841,21.8318841 49.3449275,20.0463768 50.2376812,17.8956522 L56.2434783,20.7362319 C54.4985507,24.1855072 50.9681159,28 44.4347826,28 Z" id="AC" fill="#343434" fill-rule="nonzero"></path>
    </g>
</svg>