<svg xmlns="http://www.w3.org/2000/svg" viewBox="0 0 24 24">
  <path d="M22.736 13.947c-.291 0-.531.194-.871.485-.455.371-.982.837-1.533 1.16a2.09 2.09 0 0 1-.832.156c-.871 0-1.547-.483-1.547-1.741 0-1.982 1.354-4.401 1.354-6.627 0-1.838-1.064-3.048-3.723-3.048-2.855 0-5.71 2.371-6.581 3.435 0 0 .387-1.402.387-2.177 0-.822-.581-1.258-1.645-1.258-2.806 0-5.418.726-5.418 1.79 0 .629.339.726.339 1.548 0 2.612-2.032 9.143-2.032 10.933 0 .823.387 1.063 1.016 1.063.726 0 2.612-.24 4.063-.24.726 0 1.064-.194 1.064-1.017 0-1.886 1.257-5.998 2.08-7.644 1.064-2.128 2.225-2.95 3.048-2.95.677 0 1.113.58 1.113 1.354 0 1.887-1.549 3.82-1.549 6.772 0 2.08 1.694 3.724 4.452 3.724 2.824 0 4.805-1.615 5.889-2.894.477-.454.877-.896 1.168-1.277.289-.388.387-.726.387-.969 0-.287-.24-.578-.629-.578z"/>
</svg>
