<svg xmlns="http://www.w3.org/2000/svg" viewBox="0 0 40 40">
  <path fill-rule="evenodd" clip-rule="evenodd" d="M36.664 11.157h-8.367l-.005 1.57 5.172.024.007 1.78-6.76.02-.004 3.195 3.36.01.014 3.582-2 .008-.013-1.777-1.36-.01-.02 5.755-1.573.03-.022 2.59-1.58.014-.02 1.567-1.777.027-.02 6.555 1.776.03.014 1.8h-3.57l-.03-4.98-1.57-.04-.017-1.54-1.567-.005-.02 1.542-1.59.044-.02 1.57-1.774.02-.01 1.573 1.772.02.005 1.792-3.568.01-.016-6.763-1.16-.038-.055-1.592-1.97-.014-.01-1.557-1.762-.02-.032-1.778-1.574-.023-.03-1.588-1.573-.036V14.36l1.765.005.015 3.36 1.567.03.033 1.57 1.762.02.03 1.78 2.98.005.02-1.755 1.57-.03.033-1.573 2.558-.018.047-1.59 2.55-.018.03-1.76 1.578-.045.02-10.744 1.595-.04.01-1.566 13.556-.016.038 1.57 1.56.02.013 7.596zM25.074 6.15l.008-1.786-1.78.008L23.3 6.15h1.776z"/>
</svg>
