<svg xmlns="http://www.w3.org/2000/svg" viewBox="0 0 24 24" style="enable-background:new 0 0 24 24" xml:space="preserve"><path d="M12.5 23h-.7c-.2 0-.3 0-.5-.1-1.1-.2-2-.8-2.7-1.7 0-.1-.1-.1-.2-.1-.7.2-1.4.1-2.1-.1-1.3-.5-2.3-1.3-2.8-2.7-.3-.8-.4-1.6-.2-2.4 0-.1 0-.1-.1-.1-.2-.1-.4-.3-.5-.4-1.1-1.1-1.5-2.5-1.2-4 .2-1.1.8-2.1 1.7-2.8.1 0 .1-.1.1-.1-.1-.6-.1-1.3 0-1.9.6-2.3 2.8-3.8 5.1-3.4.1 0 .1 0 .1-.1 1.1-1.4 2.6-2 4.3-1.7 1.2.2 2.1.8 2.9 1.7 0 .1.1.1.1.1 1-.2 1.9 0 2.7.4 1.8.9 2.8 2.8 2.5 4.8 0 .1 0 .2.1.2.9.7 1.5 1.6 1.7 2.8 0 .2 0 .3.1.5v.8c-.2 1.3-.8 2.4-1.8 3.1-.1 0-.1.1-.1.1.1.5.1.9 0 1.4-.2 1.3-.8 2.3-1.9 3.1-.7.5-1.4.7-2.2.8-.4 0-.7 0-1.1-.1-.1 0-.1 0-.2.1-.2.2-.4.5-.6.7-.6.6-1.4.9-2.2 1 0 .1-.2.1-.3.1zM7.7 5c-.8 0-1.5.3-2 .9-.6.6-.8 1.4-.7 2.2.1.4.1.8.2 1.1 0 .1 0 .1-.1.2-.2.2-.5.4-.8.6-.7.5-1.1 1.2-1.1 2 0 .9.3 1.7 1.1 2.3.3.2.6.4.9.7.1 0 .1.1.1.1-.1.3-.1.5-.2.8-.1.5-.1 1 0 1.5.4 1.3 1.7 2.1 3 1.9.4-.1.8-.1 1.2-.2h.1c.2.3.4.6.6.8.5.7 1.1 1.1 2 1.2.9.1 1.6-.2 2.2-.9.3-.3.5-.7.8-1.1 0-.1.1-.1.2-.1.3.1.6.1 1 .2.8.2 1.6 0 2.3-.5.8-.6 1.1-1.5 1-2.5-.1-.4-.1-.7-.2-1.1 0-.1 0-.1.1-.2.4-.3.7-.5 1.1-.8 1.2-1 1.2-3 0-4-.3-.3-.7-.5-1.1-.8-.1 0-.1-.1-.1-.1.1-.3.1-.5.2-.8.1-.4.1-.9 0-1.3-.3-1.4-1.6-2.4-3-2.1-.4.1-.8.1-1.1.2-.1 0-.1 0-.2-.1-.2-.3-.4-.7-.7-1-.7-.8-1.6-1.2-2.6-1-.9.3-1.5.7-1.9 1.3-.2.2-.4.5-.6.8 0 0-.1.1-.1 0-.2 0-.4-.1-.5-.1-.4 0-.7-.1-1.1-.1z"/><path d="m15.4 9.5 1.3 1.3-5.4 5.4-3.6-3.6L9 11.3l2.3 2.3 4.1-4.1z"/></svg>