<?xml version="1.0" standalone="no"?>
<!DOCTYPE svg PUBLIC "-//W3C//DTD SVG 20010904//EN"
 "http://www.w3.org/TR/2001/REC-SVG-20010904/DTD/svg10.dtd">
<svg version="1.0" xmlns="http://www.w3.org/2000/svg"
 width="482.000000pt" height="482.000000pt" viewBox="0 0 482.000000 482.000000"
 preserveAspectRatio="xMidYMid meet">
<metadata>
Created by potrace 1.11, written by Peter Selinger 2001-2013
</metadata>
<g transform="translate(0.000000,482.000000) scale(0.100000,-0.100000)"
fill="#000000" stroke="none">
<path d="M1822 3113 c36 -43 143 -175 238 -293 96 -118 186 -229 201 -247 l28
-32 80 99 c45 54 81 102 81 107 0 5 -78 105 -173 223 l-172 215 -174 3 -173 2
64 -77z"/>
<path d="M2968 3138 c-75 -89 -249 -305 -600 -743 -185 -231 -398 -495 -472
-587 l-136 -168 173 1 172 0 320 401 c176 220 454 567 618 770 163 203 297
371 297 373 0 3 -74 5 -164 5 l-164 0 -44 -52z"/>
<path d="M50 2417 l0 -767 130 0 130 0 0 456 0 457 40 -34 c22 -19 142 -134
268 -256 l228 -222 265 255 264 255 3 -456 2 -455 135 0 135 0 0 766 0 766
-61 -56 c-33 -31 -211 -201 -395 -379 -184 -177 -338 -323 -343 -325 -6 -2
-393 366 -743 706 l-58 56 0 -767z"/>
<path d="M3460 2415 l0 -766 493 3 494 3 85 42 c129 65 210 161 244 293 33
128 1 274 -81 375 l-44 53 22 20 c37 35 85 124 102 187 53 207 -43 408 -243
508 l-85 42 -494 3 -493 3 0 -766z m945 496 c147 -66 155 -263 14 -346 -32
-19 -55 -20 -366 -23 l-333 -3 0 195 0 196 323 0 c290 0 326 -2 362 -19z m-23
-631 c133 -37 184 -213 90 -314 -60 -63 -74 -66 -429 -66 l-323 0 0 195 0 195
313 0 c184 0 327 -4 349 -10z"/>
<path d="M2742 2191 c-45 -55 -82 -104 -82 -109 0 -5 78 -106 173 -223 l172
-214 168 -3 c92 -1 167 0 167 2 0 3 -115 148 -256 323 -142 175 -258 319 -259
321 -1 1 -39 -43 -83 -97z"/>
</g>
</svg>
