<svg width="80" height="80" viewBox="0 0 80 80" xmlns="http://www.w3.org/2000/svg"><g fill="none" fill-rule="evenodd"><g fill="#000"><path d="M50 50c0-5.523 4.477-10 10-10s10 4.477 10 10-4.477 10-10 10c0 5.523-4.477 10-10 10s-10-4.477-10-10 4.477-10 10-10zM10 10c0-5.523 4.477-10 10-10s10 4.477 10 10-4.477 10-10 10c0 5.523-4.477 10-10 10S0 25.523 0 20s4.477-10 10-10zm10 8c4.418 0 8-3.582 8-8s-3.582-8-8-8-8 3.582-8 8 3.582 8 8 8zm40 40c4.418 0 8-3.582 8-8s-3.582-8-8-8-8 3.582-8 8 3.582 8 8 8z" /></g></g></svg>